HIERARCHY
ROOT Hips
{
	OFFSET 0.000000 0.000000 0.000000
	CHANNELS 6 Xposition Yposition Zposition Zrotation Yrotation Xrotation 
	JOINT LHipJoint
	{
		OFFSET 0.000000 0.000000 0.000000
		CHANNELS 3 Zrotation Yrotation Xrotation
		JOINT LeftUpLeg
		{
			OFFSET 1.363060 -1.794630 0.839290
			CHANNELS 3 Zrotation Yrotation Xrotation
			JOINT LeftLeg
			{
				OFFSET 2.448110 -6.726130 0.000000
				CHANNELS 3 Zrotation Yrotation Xrotation
				JOINT LeftFoot
				{
					OFFSET 2.562200 -7.039590 0.000000
					CHANNELS 3 Zrotation Yrotation Xrotation
					JOINT LeftToeBase
					{
						OFFSET 0.157640 -0.433110 2.322550
						CHANNELS 3 Zrotation Yrotation Xrotation
						End Site
						{
							OFFSET 0.000000 0.000000 0.000000
						}
					}
				}
			}
		}
	}
	JOINT RHipJoint
	{
		OFFSET 0.000000 0.000000 0.000000
		CHANNELS 3 Zrotation Yrotation Xrotation
		JOINT RightUpLeg
		{
			OFFSET -1.305520 -1.794630 0.839290
			CHANNELS 3 Zrotation Yrotation Xrotation
			JOINT RightLeg
			{
				OFFSET -2.542530 -6.985550 0.000000
				CHANNELS 3 Zrotation Yrotation Xrotation
				JOINT RightFoot
				{
					OFFSET -2.568260 -7.056230 0.000000
					CHANNELS 3 Zrotation Yrotation Xrotation
					JOINT RightToeBase
					{
						OFFSET -0.164730 -0.452590 2.363150
						CHANNELS 3 Zrotation Yrotation Xrotation
						End Site
						{
							OFFSET 0.000000 0.000000 0.000000
						}
					}
				}
			}
		}
	}
	JOINT LowerBack
	{
		OFFSET 0.000000 0.000000 0.000000
		CHANNELS 3 Zrotation Yrotation Xrotation
		JOINT Spine
		{
			OFFSET 0.028270 2.035590 -0.193380
			CHANNELS 3 Zrotation Yrotation Xrotation
			JOINT Spine1
			{
				OFFSET 0.056720 2.048850 -0.042750
				CHANNELS 3 Zrotation Yrotation Xrotation
				JOINT Neck
				{
					OFFSET 0.000000 0.000000 0.000000
					CHANNELS 3 Zrotation Yrotation Xrotation
					JOINT Neck1
					{
						OFFSET -0.054170 1.746240 0.172020
						CHANNELS 3 Zrotation Yrotation Xrotation
						JOINT Head
						{
							OFFSET 0.104070 1.761360 -0.123970
							CHANNELS 3 Zrotation Yrotation Xrotation
							End Site
							{
								OFFSET 0.000000 0.000000 0.000000
							}
						}
					}
				}
				JOINT LeftShoulder
				{
					OFFSET 0.000000 0.000000 0.000000
					CHANNELS 3 Zrotation Yrotation Xrotation
					JOINT LeftArm
					{
						OFFSET 3.362410 1.200890 -0.311210
						CHANNELS 3 Zrotation Yrotation Xrotation
						JOINT LeftForeArm
						{
							OFFSET 4.983000 -0.000000 -0.000000
							CHANNELS 3 Zrotation Yrotation Xrotation
							JOINT LeftHand
							{
								OFFSET 3.483560 -0.000000 -0.000000
								CHANNELS 3 Zrotation Yrotation Xrotation
								JOINT LeftFingerBase
								{
									OFFSET 0.000000 0.000000 0.000000
									CHANNELS 3 Zrotation Yrotation Xrotation
									JOINT LeftHandIndex1
									{
										OFFSET 0.715260 -0.000000 -0.000000
										CHANNELS 3 Zrotation Yrotation Xrotation
										End Site
										{
											OFFSET 0.000000 0.000000 0.000000
										}
									}
								}
								JOINT LThumb
								{
									OFFSET 0.000000 0.000000 0.000000
									CHANNELS 3 Zrotation Yrotation Xrotation
									End Site
									{
										OFFSET 0.000000 0.000000 0.000000
									}
								}
							}
						}
					}
				}
				JOINT RightShoulder
				{
					OFFSET 0.000000 0.000000 0.000000
					CHANNELS 3 Zrotation Yrotation Xrotation
					JOINT RightArm
					{
						OFFSET -3.136600 1.374050 -0.404650
						CHANNELS 3 Zrotation Yrotation Xrotation
						JOINT RightForeArm
						{
							OFFSET -5.241900 -0.000000 -0.000000
							CHANNELS 3 Zrotation Yrotation Xrotation
							JOINT RightHand
							{
								OFFSET -3.444170 -0.000000 -0.000000
								CHANNELS 3 Zrotation Yrotation Xrotation
								JOINT RightFingerBase
								{
									OFFSET 0.000000 0.000000 0.000000
									CHANNELS 3 Zrotation Yrotation Xrotation
									JOINT RightHandIndex1
									{
										OFFSET -0.622530 -0.000000 -0.000000
										CHANNELS 3 Zrotation Yrotation Xrotation
										End Site
										{
											OFFSET 0.000000 0.000000 0.000000
										}
									}
								}
								JOINT RThumb
								{
									OFFSET 0.000000 0.000000 0.000000
									CHANNELS 3 Zrotation Yrotation Xrotation
									End Site
									{
										OFFSET 0.000000 0.000000 0.000000
									}
								}
							}
						}
					}
				}
			}
		}
	}
}
MOTION
Frames: 10
Frame Time: 0.016667
-1.864095 17.313103 24.015227 2.252211 19.774948 -5.811687 -12.205812 6.776684 -13.907555 -36.445182 -6.658332 4.837237 33.057763 -6.198191 34.058037 1.107967 -8.641405 5.419365 0.000000 0.000000 0.000000 1.453489 -13.387214 7.244931 7.794305 -1.154427 2.935165 28.934546 -6.254171 54.794700 85.386411 -66.611652 -42.301828 0.000000 0.000000 0.000000 8.296398 7.753991 0.501195 -11.233424 7.793346 74.422266 -10.846136 -1.455339 -49.732202 -19.671470 6.327206 -38.460559 15.314855 2.354082 7.183876 0.000000 0.000000 0.000000 10.001590 2.739032 -0.143743 -54.906111 -15.211313 1.922448 -86.374232 -1.994691 -0.012625 -0.062992 1.054580 -0.006325 -0.062492 1.055382 0.000000 0.000000 0.000000 0.000000 0.000000 0.000000 0.000000 -4.046651 -23.549373 -5.118938 78.352144 22.757738 -0.296508 -13.931148 63.611065 0.207077 -0.520048 1.810365 0.104113 -0.507928 1.815587 0.000000 0.000000 0.000000 0.000000 0.000000 0.000000 0.000000 
-1.954633 17.391403 24.203095 1.771629 20.081188 -6.191163 -11.439141 6.626438 -14.258085 -37.466936 -5.822096 6.498100 34.900528 -6.851266 33.049057 1.070472 -7.839667 8.719277 0.000000 0.000000 0.000000 2.686757 -13.204252 8.105177 7.161012 -1.841750 3.279095 29.654268 -4.986568 53.601483 85.438689 -67.153058 -42.113867 0.000000 0.000000 0.000000 5.829401 7.686833 0.010742 -6.274265 4.941040 76.945833 -15.714924 -3.360714 -50.950145 -24.404090 7.213266 -41.262727 19.058939 3.230131 6.559572 0.000000 0.000000 0.000000 10.847069 1.108849 0.218128 -55.910660 -16.253713 -1.900378 -90.160897 3.958217 -0.111861 0.414661 2.244704 -0.055999 0.416891 2.247845 0.000000 0.000000 0.000000 0.000000 0.000000 0.000000 0.000000 -5.134960 -24.861811 -5.243854 78.678530 22.455053 0.229768 -11.560107 62.579833 0.165076 -0.848568 1.929032 0.083016 -0.838580 1.933195 0.000000 0.000000 0.000000 0.000000 0.000000 0.000000 0.000000 
-2.045114 17.459169 24.390687 1.599698 21.057567 -6.687930 -9.415374 7.109819 -14.997445 -40.363768 -3.702640 10.202864 36.913896 -8.046879 29.270112 0.921377 -7.086144 12.292848 0.000000 0.000000 0.000000 3.373504 -13.494362 9.217242 6.788608 -2.426806 3.777830 30.386611 -3.742415 52.147876 85.910798 -67.523272 -42.448286 0.000000 0.000000 0.000000 2.997317 7.540144 0.024897 -1.326783 1.727451 78.080090 -20.471577 -5.400713 -51.169104 -29.262084 7.801109 -43.686743 22.881863 4.215888 5.560996 0.000000 0.000000 0.000000 11.827243 -0.506237 1.186187 -57.168533 -17.420252 -7.225584 -93.024906 10.855307 -0.260407 0.791471 3.509348 -0.130316 0.796066 3.516101 0.000000 0.000000 0.000000 0.000000 0.000000 0.000000 0.000000 -6.088107 -26.154019 -5.197692 78.834963 22.001483 0.781389 -8.300424 61.225929 0.117240 -1.195445 2.090649 0.058978 -1.188031 2.093557 0.000000 0.000000 0.000000 0.000000 0.000000 0.000000 0.000000 
-2.123039 17.523378 24.574714 1.603368 22.467198 -6.937276 -7.634547 7.187845 -15.561634 -42.894670 -1.475472 13.795952 38.826030 -9.172006 24.865890 0.780940 -6.400662 15.767601 0.000000 0.000000 0.000000 3.833148 -14.073113 10.253319 6.479187 -3.009384 4.034657 31.272017 -2.450485 50.856455 86.722274 -67.946790 -43.122350 0.000000 0.000000 0.000000 0.900721 8.426960 0.245234 2.774201 -0.921992 78.447721 -24.347451 -7.242671 -50.417973 -34.429927 8.334988 -46.078317 26.266939 5.245660 4.242226 0.000000 0.000000 0.000000 12.903614 -2.143148 3.433406 -58.116867 -20.710218 -19.261837 -100.472653 24.187009 -0.898594 3.003871 6.709681 -0.449605 3.012745 6.731592 0.000000 0.000000 0.000000 0.000000 0.000000 0.000000 0.000000 -6.292341 -28.546024 -5.506741 78.149602 21.392220 1.346661 -5.315423 60.050869 0.071169 -1.501798 2.203533 0.035834 -1.496830 2.205334 0.000000 0.000000 0.000000 0.000000 0.000000 0.000000 0.000000 
-2.187453 17.583438 24.755260 1.737008 25.568121 -6.352621 -6.324219 5.917221 -16.382635 -45.030407 0.695619 17.360675 40.694393 -10.359326 19.764959 0.631328 -5.858482 19.225034 0.000000 0.000000 0.000000 4.033906 -15.401528 10.957131 6.536349 -3.821848 3.715904 32.512567 -1.229049 49.455870 87.880965 -68.465226 -44.211107 0.000000 0.000000 0.000000 0.119272 13.061464 1.669748 6.067669 0.618332 76.537187 -23.350075 -6.464073 -48.354632 -40.841913 7.297686 -49.968322 28.851473 5.861352 4.364952 0.000000 0.000000 0.000000 18.864806 -3.090929 12.984235 -71.771540 -36.106272 -72.567364 -77.779059 87.023623 -8.495316 3.822181 19.188591 -4.351675 3.154124 19.898123 -0.000000 0.000000 0.000000 0.000000 0.000000 0.000000 0.000000 -5.201653 -36.127411 -7.165898 72.519800 19.357880 1.929643 -2.616538 59.284287 0.025508 -1.780985 2.253101 0.012906 -1.778322 2.253918 0.000000 0.000000 0.000000 0.000000 0.000000 0.000000 0.000000 
-2.240447 17.641041 24.931780 2.094629 26.046623 -6.462709 -5.077047 6.260558 -15.817073 -46.321165 2.474843 19.704238 42.204076 -11.155321 14.934221 0.593968 -5.413812 22.093976 0.000000 0.000000 0.000000 4.379245 -15.714014 11.936544 5.972521 -3.962361 3.737903 33.351983 0.165413 48.813151 89.228253 -68.851632 -45.335598 0.000000 0.000000 0.000000 -1.102696 12.698717 0.578000 9.043413 -3.207943 79.408034 -30.517353 -8.327890 -46.301802 -45.622302 6.363222 -49.967242 30.571285 6.544584 2.457227 0.000000 0.000000 0.000000 15.995863 -1.172457 20.918972 -63.131298 -47.903098 -75.173580 -169.976737 74.879628 176.880007 20.864829 12.633478 -1.579802 20.841566 12.608303 -0.000000 0.000000 0.000000 0.000000 0.000000 0.000000 0.000000 -4.449896 -39.546680 -8.954282 73.866688 19.286023 2.847139 -0.477627 59.221723 -0.017660 -1.987263 2.153401 -0.008757 -1.986565 2.153460 0.000000 0.000000 0.000000 0.000000 0.000000 0.000000 0.000000 
-2.281829 17.695756 25.104578 1.989881 26.780994 -6.446905 -3.992011 6.368095 -14.846319 -46.847090 3.619864 21.419573 43.564183 -11.959439 10.250578 0.584224 -5.267792 24.417240 0.000000 0.000000 0.000000 5.244777 -16.115241 12.898085 5.436249 -3.993939 3.313516 34.271105 1.421248 48.251175 90.748207 -69.197826 -46.619018 0.000000 0.000000 0.000000 -3.113597 12.824603 -0.614878 13.389958 -6.057889 79.067044 -34.110503 -8.545043 -43.276231 -50.110728 5.303116 -49.806540 32.591259 7.276218 0.559882 0.000000 0.000000 0.000000 16.790391 -1.625084 27.266346 -63.859175 -52.403759 -60.196775 -134.069399 66.710182 177.897698 24.396648 10.553855 -1.063180 24.393675 10.470198 0.000000 0.000000 0.000000 0.000000 0.000000 0.000000 0.000000 -3.942711 -41.149299 -10.415281 73.238463 19.413783 3.051399 0.451718 59.658067 -0.061880 -2.168391 1.946443 -0.030940 -2.169534 1.945841 0.000000 0.000000 0.000000 0.000000 0.000000 0.000000 0.000000 
-2.312221 17.747181 25.274387 1.754729 27.629243 -6.015229 -3.193983 6.227957 -13.799185 -46.827983 4.221767 22.481653 44.672896 -12.705656 5.946205 0.592240 -5.343990 26.201600 0.000000 0.000000 0.000000 6.149255 -16.592138 13.720404 5.096755 -3.651050 2.696409 35.277780 2.601979 47.448953 91.993131 -69.523658 -47.689203 0.000000 0.000000 0.000000 -4.825579 13.431096 -1.462590 17.155809 -7.517354 77.223938 -35.874334 -8.453917 -41.006145 -53.850444 4.787611 -49.599275 34.864853 8.090662 -1.162166 0.000000 0.000000 0.000000 17.994105 -2.886000 31.641039 -67.458845 -53.881585 -51.716615 -122.096053 62.796695 179.388704 27.283393 9.495199 -0.196038 27.450760 9.090267 -0.000000 0.000000 0.000000 0.000000 0.000000 0.000000 0.000000 -3.031502 -42.337686 -11.327852 71.453565 18.820176 3.485402 2.029486 60.507940 -0.109032 -2.383394 1.824649 -0.054606 -2.386705 1.823293 0.000000 0.000000 0.000000 0.000000 0.000000 0.000000 0.000000 
-2.331201 17.794973 25.441699 1.433997 28.266706 -5.286159 -2.663691 6.085357 -12.598228 -46.324410 4.321733 22.871455 45.530214 -13.387464 2.076075 0.617110 -5.643453 27.362074 0.000000 0.000000 0.000000 7.052106 -17.050932 14.467537 4.863842 -2.840772 1.975079 36.262793 3.723838 46.459335 92.938214 -69.810931 -48.492587 0.000000 0.000000 0.000000 -6.244658 13.953337 -2.190241 20.133819 -8.200601 75.046169 -37.050433 -8.315022 -39.667272 -56.494837 4.943569 -49.118206 36.682231 8.917135 -2.809704 0.000000 0.000000 0.000000 18.434098 -3.983636 34.152875 -70.367515 -53.400539 -51.236013 -118.234831 65.492681 -179.462575 27.523297 8.467138 0.464166 27.801572 7.873882 -0.000000 0.000000 0.000000 0.000000 0.000000 0.000000 0.000000 -1.979349 -43.244495 -11.789651 69.339050 17.680608 4.380696 4.473593 61.849288 -0.160581 -2.636251 1.779033 -0.080491 -2.642172 1.776823 0.000000 0.000000 0.000000 0.000000 0.000000 0.000000 0.000000 
-2.340988 17.841371 25.609396 1.022430 27.836728 -4.625933 -2.438728 6.531618 -11.324913 -45.594156 3.851153 22.334673 46.151366 -13.780155 0.015544 0.638745 -5.923831 27.719777 0.000000 0.000000 0.000000 7.866439 -17.308029 15.361690 4.553762 -1.453794 1.408000 36.894676 4.826543 45.362022 92.758837 -70.109021 -48.154279 0.000000 0.000000 0.000000 -7.441542 13.017582 -3.259591 22.446694 -10.081155 74.273491 -40.326271 -8.853227 -39.410830 -56.743748 5.809597 -48.047995 37.078211 9.578693 -4.272430 0.000000 0.000000 0.000000 16.050010 -3.059916 33.100142 -66.106913 -50.712913 -52.612919 -123.696784 64.085236 179.782381 20.505522 7.148417 -0.039704 20.608312 6.961422 -0.000000 0.000000 0.000000 0.000000 0.000000 0.000000 0.000000 -2.550784 -43.261400 -10.902209 69.728659 16.163170 5.703977 7.097698 64.299216 -0.212932 -2.922431 1.850842 -0.106810 -2.931548 1.847633 0.000000 0.000000 0.000000 0.000000 0.000000 0.000000 0.000000 
